<svg width="39" height="53" viewBox="0 0 39 53" fill="none" xmlns="http://www.w3.org/2000/svg">
<g filter="url(#filter0_d_841_3612)">
<path d="M17.2738 26.898C19.944 27.2056 22.4499 26.3899 24.3636 24.5911C26.3067 22.7647 27.181 20.758 27.181 18.1232C27.181 15.4555 26.298 13.4576 24.2967 11.5953C23.4123 10.7719 22.2494 10.0963 20.9819 9.66862C19.9454 9.31844 17.6482 9.23126 16.416 9.49523C15.0439 9.78874 13.4117 10.6407 12.3786 11.6016C10.4461 13.3995 9.5205 15.5127 9.5205 18.1232C9.5205 19.6881 9.74911 20.6684 10.448 22.0977C10.9566 23.1376 11.1474 23.3967 12.0977 24.3417C12.9249 25.1646 13.3787 25.5162 14.0709 25.8717C15.2115 26.4568 16.2049 26.775 17.2738 26.8985V26.898ZM17.7756 48.3126C17.5877 48.1983 16.7454 47.3797 15.9036 46.4934C9.4556 39.703 4.95367 33.098 2.51018 26.8404C1.77495 24.9577 1.50275 24.007 1.21457 22.3215C0.331622 17.1536 1.38893 12.1048 4.25235 7.81069C5.34211 6.17605 7.5536 3.9602 9.13206 2.91984C14.8913 -0.874957 21.8314 -0.858974 27.6173 2.96198C29.1188 3.9539 31.3521 6.20802 32.4152 7.80537C34.3613 10.7303 35.3987 13.7322 35.7136 17.3541C35.9707 20.3095 35.5281 23.1952 34.3274 26.4083C31.99 32.6573 27.7413 38.8946 20.4239 46.8203C18.7903 48.5896 18.5006 48.7528 17.7756 48.3121V48.3126Z" fill="#F8893C"/>
<path d="M12.2136 11.4243L12.2137 11.4243C13.2785 10.4338 14.9502 9.56114 16.3654 9.25841C17.0092 9.1205 17.9139 9.07668 18.7815 9.10962C19.6467 9.14247 20.5079 9.25285 21.0594 9.43919C22.3559 9.87665 23.5495 10.5688 24.4617 11.418C26.5108 13.3248 27.4231 15.3864 27.4231 18.1232C27.4231 20.8258 26.5206 22.896 24.5294 24.7676C22.6272 26.5557 20.1542 27.3979 17.516 27.166V27.1703L17.246 27.1391C16.1433 27.0117 15.122 26.6831 13.9603 26.0872L13.9602 26.0871C13.2378 25.7161 12.764 25.346 11.9269 24.5134M12.2136 11.4243L12.0977 24.3417M12.2136 11.4243C10.2325 13.2675 9.27833 15.4446 9.27833 18.1232C9.27833 19.7256 9.51563 20.7422 10.2305 22.2041L10.448 22.0977M12.2136 11.4243L10.448 22.0977M11.9269 24.5134L12.0977 24.3417M11.9269 24.5134C11.9269 24.5134 11.9269 24.5134 11.9269 24.5134L12.0977 24.3417M11.9269 24.5134C11.4519 24.0411 11.1544 23.7283 10.9121 23.3988C10.6684 23.0674 10.4857 22.7261 10.2305 22.2041L10.448 22.0977M12.0977 24.3417C11.1474 23.3967 10.9566 23.1376 10.448 22.0977M17.8919 48.0994C17.8612 48.0781 17.7929 48.0226 17.6842 47.9247C17.5688 47.8209 17.422 47.6825 17.2536 47.5188C16.9169 47.1917 16.4982 46.7678 16.0792 46.3266C9.64488 39.5506 5.1643 32.9717 2.73576 26.7523L2.5276 26.8336L2.73576 26.7523C2.00548 24.8823 1.73826 23.9475 1.45328 22.2807C0.580573 17.1727 1.62533 12.1868 4.45383 7.94505L4.45384 7.94503C5.52632 6.33631 7.71494 4.1439 9.26533 3.12204C14.9431 -0.619037 21.7783 -0.603863 27.4839 3.16403C28.9566 4.13697 31.1672 6.36736 32.2136 7.93954C34.1364 10.8295 35.1609 13.7922 35.4723 17.3751L35.7136 17.3541L35.4723 17.3751C35.7259 20.2894 35.2906 23.1388 34.1006 26.3235C31.7788 32.5305 27.5536 38.7409 20.246 46.6561C19.8378 47.0982 19.5177 47.4353 19.2553 47.687C18.991 47.9405 18.7966 48.0958 18.6402 48.184C18.4902 48.2685 18.3868 48.2847 18.2951 48.2734C18.1933 48.2609 18.0755 48.211 17.9014 48.1052L17.8919 48.0994Z" stroke="#333333" stroke-width="0.484339"/>
</g>
<defs>
<filter id="filter0_d_841_3612" x="0.911621" y="0.0849609" width="37.5359" height="52.4289" filterUnits="userSpaceOnUse" color-interpolation-filters="sRGB">
<feFlood flood-opacity="0" result="BackgroundImageFix"/>
<feColorMatrix in="SourceAlpha" type="matrix" values="0 0 0 0 0 0 0 0 0 0 0 0 0 0 0 0 0 0 127 0" result="hardAlpha"/>
<feOffset dx="1.33169" dy="2.66338"/>
<feGaussianBlur stdDeviation="0.665846"/>
<feComposite in2="hardAlpha" operator="out"/>
<feColorMatrix type="matrix" values="0 0 0 0 0 0 0 0 0 0 0 0 0 0 0 0 0 0 0.25 0"/>
<feBlend mode="normal" in2="BackgroundImageFix" result="effect1_dropShadow_841_3612"/>
<feBlend mode="normal" in="SourceGraphic" in2="effect1_dropShadow_841_3612" result="shape"/>
</filter>
</defs>
</svg>
