<svg width="196" height="239" viewBox="0 0 196 239" fill="none" xmlns="http://www.w3.org/2000/svg">
<path d="M2.52 228V198.6H19.887V203.724H7.644V209.688H17.871V214.812H7.644V228H2.52ZM21.7153 207H26.8393V228H21.7153V207ZM24.3193 204.291C23.5633 204.291 22.9263 204.046 22.4083 203.556C21.8903 203.052 21.6313 202.422 21.6313 201.666C21.6313 200.924 21.8903 200.301 22.4083 199.797C22.9263 199.293 23.5563 199.041 24.2983 199.041C25.0403 199.041 25.6633 199.293 26.1673 199.797C26.6853 200.301 26.9443 200.924 26.9443 201.666C26.9443 202.422 26.6923 203.052 26.1883 203.556C25.6843 204.046 25.0613 204.291 24.3193 204.291ZM31.7441 228L31.7231 207H36.8471L36.8681 208.869C37.5821 208.113 38.4361 207.518 39.4301 207.084C40.4241 206.636 41.4951 206.412 42.6431 206.412C43.4131 206.412 44.1831 206.524 44.9531 206.748L42.9371 211.914C42.4051 211.704 41.8731 211.599 41.3411 211.599C40.5151 211.599 39.7591 211.802 39.0731 212.208C38.4011 212.6 37.8621 213.139 37.4561 213.825C37.0641 214.497 36.8681 215.246 36.8681 216.072V228H31.7441ZM53.422 228.378C52.33 228.308 51.273 228.091 50.251 227.727C49.243 227.349 48.347 226.838 47.563 226.194C46.779 225.55 46.177 224.78 45.757 223.884L50.083 222.036C50.251 222.316 50.524 222.617 50.902 222.939C51.28 223.247 51.728 223.506 52.246 223.716C52.778 223.926 53.359 224.031 53.989 224.031C54.521 224.031 55.025 223.961 55.501 223.821C55.991 223.667 56.383 223.436 56.677 223.128C56.985 222.82 57.139 222.421 57.139 221.931C57.139 221.413 56.957 221.014 56.593 220.734C56.243 220.44 55.795 220.223 55.249 220.083C54.717 219.929 54.199 219.789 53.695 219.663C52.365 219.397 51.126 218.984 49.978 218.424C48.844 217.864 47.927 217.143 47.227 216.261C46.541 215.365 46.198 214.287 46.198 213.027C46.198 211.641 46.562 210.444 47.29 209.436C48.032 208.428 48.991 207.651 50.167 207.105C51.357 206.559 52.638 206.286 54.01 206.286C55.676 206.286 57.202 206.636 58.588 207.336C59.988 208.022 61.094 208.995 61.906 210.255L57.853 212.649C57.657 212.313 57.384 212.005 57.034 211.725C56.684 211.431 56.285 211.193 55.837 211.011C55.389 210.815 54.92 210.703 54.43 210.675C53.8 210.647 53.226 210.703 52.708 210.843C52.19 210.983 51.77 211.221 51.448 211.557C51.14 211.893 50.986 212.341 50.986 212.901C50.986 213.433 51.196 213.832 51.616 214.098C52.036 214.35 52.54 214.546 53.128 214.686C53.73 214.826 54.304 214.98 54.85 215.148C56.082 215.554 57.237 216.051 58.315 216.639C59.407 217.227 60.282 217.948 60.94 218.802C61.598 219.656 61.913 220.678 61.885 221.868C61.885 223.226 61.479 224.416 60.667 225.438C59.855 226.446 58.805 227.216 57.517 227.748C56.243 228.28 54.878 228.49 53.422 228.378ZM76.735 212.124H72.661V228H67.537V212.124H64.429V207H67.537V200.406H72.661V207H76.735V212.124ZM90.6216 228L96.3336 198.6H100.576L107.737 217.437L114.898 198.6H119.14L124.852 228H119.623L116.095 209.814L109.48 227.328H105.973L99.3576 209.814L95.8506 228H90.6216ZM143.493 207H148.617V228H143.493L143.262 225.396C142.688 226.334 141.925 227.097 140.973 227.685C140.035 228.259 138.922 228.546 137.634 228.546C136.08 228.546 134.624 228.252 133.266 227.664C131.908 227.076 130.711 226.264 129.675 225.228C128.653 224.192 127.848 222.995 127.26 221.637C126.686 220.279 126.399 218.823 126.399 217.269C126.399 215.771 126.672 214.364 127.218 213.048C127.778 211.732 128.555 210.577 129.549 209.583C130.543 208.589 131.691 207.812 132.993 207.252C134.295 206.692 135.695 206.412 137.193 206.412C138.579 206.412 139.818 206.72 140.91 207.336C142.016 207.952 142.954 208.736 143.724 209.688L143.493 207ZM137.508 223.611C138.6 223.611 139.566 223.338 140.406 222.792C141.246 222.246 141.904 221.511 142.38 220.587C142.856 219.649 143.094 218.62 143.094 217.5C143.094 216.366 142.856 215.337 142.38 214.413C141.904 213.475 141.239 212.733 140.385 212.187C139.545 211.641 138.586 211.368 137.508 211.368C136.43 211.368 135.443 211.648 134.547 212.208C133.665 212.754 132.958 213.489 132.426 214.413C131.908 215.337 131.649 216.366 131.649 217.5C131.649 218.634 131.915 219.663 132.447 220.587C132.979 221.511 133.686 222.246 134.568 222.792C135.464 223.338 136.444 223.611 137.508 223.611ZM157.925 238.5H152.801V207H157.925V209.667C158.611 208.715 159.451 207.945 160.445 207.357C161.453 206.755 162.629 206.454 163.973 206.454C165.513 206.454 166.948 206.741 168.278 207.315C169.608 207.889 170.777 208.687 171.785 209.709C172.807 210.717 173.598 211.886 174.158 213.216C174.732 214.546 175.019 215.974 175.019 217.5C175.019 219.026 174.732 220.461 174.158 221.805C173.598 223.149 172.807 224.332 171.785 225.354C170.777 226.362 169.608 227.153 168.278 227.727C166.948 228.301 165.513 228.588 163.973 228.588C162.629 228.588 161.453 228.294 160.445 227.706C159.451 227.104 158.611 226.327 157.925 225.375V238.5ZM163.91 211.389C162.846 211.389 161.894 211.669 161.054 212.229C160.214 212.775 159.556 213.51 159.08 214.434C158.604 215.358 158.366 216.38 158.366 217.5C158.366 218.62 158.604 219.649 159.08 220.587C159.556 221.511 160.214 222.253 161.054 222.813C161.894 223.359 162.846 223.632 163.91 223.632C164.988 223.632 165.975 223.359 166.871 222.813C167.767 222.267 168.481 221.532 169.013 220.608C169.545 219.67 169.811 218.634 169.811 217.5C169.811 216.38 169.545 215.358 169.013 214.434C168.481 213.51 167.767 212.775 166.871 212.229C165.989 211.669 165.002 211.389 163.91 211.389ZM184.672 228.378C183.58 228.308 182.523 228.091 181.501 227.727C180.493 227.349 179.597 226.838 178.813 226.194C178.029 225.55 177.427 224.78 177.007 223.884L181.333 222.036C181.501 222.316 181.774 222.617 182.152 222.939C182.53 223.247 182.978 223.506 183.496 223.716C184.028 223.926 184.609 224.031 185.239 224.031C185.771 224.031 186.275 223.961 186.751 223.821C187.241 223.667 187.633 223.436 187.927 223.128C188.235 222.82 188.389 222.421 188.389 221.931C188.389 221.413 188.207 221.014 187.843 220.734C187.493 220.44 187.045 220.223 186.499 220.083C185.967 219.929 185.449 219.789 184.945 219.663C183.615 219.397 182.376 218.984 181.228 218.424C180.094 217.864 179.177 217.143 178.477 216.261C177.791 215.365 177.448 214.287 177.448 213.027C177.448 211.641 177.812 210.444 178.54 209.436C179.282 208.428 180.241 207.651 181.417 207.105C182.607 206.559 183.888 206.286 185.26 206.286C186.926 206.286 188.452 206.636 189.838 207.336C191.238 208.022 192.344 208.995 193.156 210.255L189.103 212.649C188.907 212.313 188.634 212.005 188.284 211.725C187.934 211.431 187.535 211.193 187.087 211.011C186.639 210.815 186.17 210.703 185.68 210.675C185.05 210.647 184.476 210.703 183.958 210.843C183.44 210.983 183.02 211.221 182.698 211.557C182.39 211.893 182.236 212.341 182.236 212.901C182.236 213.433 182.446 213.832 182.866 214.098C183.286 214.35 183.79 214.546 184.378 214.686C184.98 214.826 185.554 214.98 186.1 215.148C187.332 215.554 188.487 216.051 189.565 216.639C190.657 217.227 191.532 217.948 192.19 218.802C192.848 219.656 193.163 220.678 193.135 221.868C193.135 223.226 192.729 224.416 191.917 225.438C191.105 226.446 190.055 227.216 188.767 227.748C187.493 228.28 186.128 228.49 184.672 228.378Z" fill="#333333"/>
<path d="M170.137 129.465C168.847 121.482 168.312 109.989 164.934 92.3699C161.556 74.7453 156.3 57.4512 157.034 47.2698C157.769 37.0885 155.23 34.4763 156.237 29.6872C157.244 24.8982 166.98 7.81909 153.09 12.3039C153.09 12.3039 147.698 12.4613 150.541 26.4403C150.541 26.4403 147.635 33.0758 148.542 34.8487C149.455 36.6217 147.425 39.2863 147.792 46.1998C148.159 53.1185 151.222 68.1571 151.222 68.1571C151.222 68.1571 136.882 71.3463 131.258 71.4984C125.635 71.6505 123.726 63.5359 122.499 60.0686C121.004 55.8356 120.264 50.0184 117.353 48.9221C114.442 47.8259 116.907 35.09 119.042 33.3642C121.177 31.6385 127.104 26.9071 127.739 21.8348C127.739 21.8348 127.828 18.7872 133.54 18.0109C137.06 17.7277 137.658 15.0578 127.933 11.4856C125.667 10.531 126.013 11.7322 123.695 6.01467C121.817 1.37773 116.849 0.197506 116.849 0.197506C116.849 0.197506 106.962 -3.26971 105.351 18.8502C104.224 25.6325 107.402 28.0402 107.261 29.5613C107.261 29.5613 103.195 35.368 97.7245 40.1675C97.4675 37.3927 96.4971 35.1634 94.0894 35.2578C94.0894 35.2578 88.5031 34.0986 93.14 43.6348C92.8201 43.8393 92.4948 44.0334 92.1696 44.217C89.3161 47.1649 70.8208 58.3691 76.853 78.842C76.853 78.842 76.8216 80.5572 76.04 84.1608C72.3105 83.0173 70.8942 77.1844 69.9553 74.5198C68.6649 70.8742 68.0302 65.8543 65.5177 64.9102C63.0051 63.966 65.1348 52.9926 66.9707 51.5029C68.8118 50.0132 73.9208 45.9375 74.4664 41.5681C74.4664 41.5681 74.545 38.9401 79.4705 38.274C82.5023 38.0274 83.0164 35.7299 74.6395 32.6509C72.6882 31.8273 72.9872 32.8659 70.9887 27.9352C69.3678 23.9382 65.0876 22.9206 65.0876 22.9206C65.0876 22.9206 56.5638 19.9308 55.179 38.9978C54.2086 44.8465 56.9467 46.9184 56.826 48.2297C56.826 48.2297 50.7414 56.9266 43.8174 60.8659C41.3573 63.4047 25.4165 73.0615 30.6147 90.7071C30.6147 90.7071 30.5518 94.9769 27.2839 104.398C21.9965 114.012 34.3967 115.408 39.8939 122.604C45.3963 129.801 60.4034 134.024 58.6514 137.591C56.1127 142.757 52.5405 148.685 47.1955 163.172C47.1955 163.172 43.2614 170.663 50.6102 170.967C59.3701 171.329 63.5507 171.156 63.5507 171.156C63.5507 171.156 69.0846 169.346 60.2041 165.129C60.2041 165.129 58.3525 163.886 56.4169 162.748C55.3049 162.092 54.9797 160.634 55.7088 159.569C58.3262 155.755 64.0542 147.405 67.7785 141.881C72.7301 134.533 69.7193 133.494 66.6245 127.54C63.5297 121.587 59.9523 117.448 54.2348 114.941C48.5173 112.434 55.8661 108.814 56.3172 102.987C56.3172 102.987 59.2337 88.4306 62.0872 82.1308C62.4544 81.3178 63.5507 81.1709 64.1172 81.8633C65.5229 83.5681 68.004 86.5947 70.3697 89.5741C71.0621 90.4448 72.4364 90.8749 74.2093 91.0113C73.8526 92.1653 73.4488 93.4085 72.9819 94.7356C66.8448 105.893 81.2329 107.508 87.6114 115.859C90.5278 119.678 95.7575 122.778 100.373 125.405C100.657 129.717 103.054 135.734 104.266 143.376C102.021 148.034 99.3349 154.114 96.088 162.921C96.088 162.921 91.5244 171.612 100.053 171.964C110.214 172.383 115.066 172.179 115.066 172.179C115.066 172.179 121.481 170.081 111.184 165.187C111.184 165.187 109.034 163.744 106.789 162.422C105.498 161.662 105.121 159.967 105.97 158.735C109.007 154.313 115.653 144.619 119.97 138.21C125.719 129.68 122.221 128.479 118.633 121.571C115.045 114.668 110.896 109.858 104.26 106.952C97.6248 104.046 106.154 99.8446 106.673 93.078C106.673 93.078 110.056 76.193 113.366 68.8809C113.796 67.9368 115.061 67.7689 115.722 68.5662C117.353 70.5437 120.233 74.0582 122.976 77.5149C127.12 82.7288 152.523 74.4935 152.523 74.4935C152.523 74.4935 157.979 110.304 157.753 117.8C157.527 125.295 164.593 137.911 162.815 155.341C162.815 155.341 163.429 161.678 159.919 169.357C159.919 169.357 162.018 178.174 170.783 171.507C170.783 171.507 171.407 137.444 170.122 129.46L170.137 129.465ZM109.385 133.242C108.845 134.338 108.268 135.466 107.644 136.673C107.219 134.401 106.689 131.731 106.096 128.773C108.588 130.41 110.056 131.868 109.38 133.237L109.385 133.242Z" fill="#333333"/>
</svg>
